<?xml version="1.0" encoding="UTF-8" standalone="no"?>
<!-- Generator: Adobe Illustrator 16.0.3, SVG Export Plug-In . SVG Version: 6.00 Build 0)  -->

<svg
   xmlns:dc="http://purl.org/dc/elements/1.1/"
   xmlns:cc="http://creativecommons.org/ns#"
   xmlns:rdf="http://www.w3.org/1999/02/22-rdf-syntax-ns#"
   xmlns:svg="http://www.w3.org/2000/svg"
   xmlns="http://www.w3.org/2000/svg"
   xmlns:sodipodi="http://sodipodi.sourceforge.net/DTD/sodipodi-0.dtd"
   xmlns:inkscape="http://www.inkscape.org/namespaces/inkscape"
   version="1.1"
   id="Layer_1"
   x="0px"
   y="0px"
   width="400"
   height="450"
   viewBox="0 50 400 335.3084"
   enable-background="new 0 0 1000 1405.488"
   xml:space="preserve"
   inkscape:version="0.92.3 (2405546, 2018-03-11)"
   sodipodi:docname="C.svg"><metadata
     id="metadata187"><rdf:RDF><cc:Work
         rdf:about=""><dc:format>image/svg+xml</dc:format><dc:type
           rdf:resource="http://purl.org/dc/dcmitype/StillImage" /><dc:title></dc:title></cc:Work></rdf:RDF></metadata><defs
     id="defs185" /><sodipodi:namedview
     pagecolor="#ffffff"
     bordercolor="#666666"
     borderopacity="1"
     objecttolerance="10"
     gridtolerance="10"
     guidetolerance="10"
     inkscape:pageopacity="0"
     inkscape:pageshadow="2"
     inkscape:window-width="1920"
     inkscape:window-height="1017"
     id="namedview183"
     showgrid="false"
     fit-margin-top="10"
     fit-margin-left="10"
     fit-margin-right="10"
     fit-margin-bottom="10"
     inkscape:zoom="0.5"
     inkscape:cx="95.46728"
     inkscape:cy="381.15368"
     inkscape:window-x="0"
     inkscape:window-y="34"
     inkscape:window-maximized="1"
     inkscape:current-layer="Layer_1" /><path
     d="m 272.623,175.71997 c 0,0 -5.446,-50.776 -55.826,-52.186 -50.38,-1.41 -76.254,38.082 -76.254,94.499 0,56.417 28.595,101.553 77.614,101.553 49.02,0 54.466,-56.417 54.466,-56.417 l 93.953,5.641 c 0,0 5.532,50.954 -33.784,89.829 -39.317,38.872 -87.575,45.223 -121.276,44.959 -33.701,-0.269 -80.427,0.528 -125.613,-45.752 -45.186,-46.28 -52.854,-91.239 -52.854,-135.403 0,-44.166 8.569,-102.673 62.296,-147.039996 36.514,-30.148 73.529,-41.256 110.55,-41.256 154.551,0 164.931,142.543996 164.931,142.543996 z"
     id="path3"
     inkscape:connector-curvature="0"
     style="fill:#a8b9cc" /></svg>