<?xml version="1.0" encoding="UTF-8" standalone="no"?>
<!-- Created with Inkscape (http://www.inkscape.org/) -->

<svg
   xmlns:dc="http://purl.org/dc/elements/1.1/"
   xmlns:cc="http://creativecommons.org/ns#"
   xmlns:rdf="http://www.w3.org/1999/02/22-rdf-syntax-ns#"
   xmlns:svg="http://www.w3.org/2000/svg"
   xmlns="http://www.w3.org/2000/svg"
   xmlns:sodipodi="http://sodipodi.sourceforge.net/DTD/sodipodi-0.dtd"
   xmlns:inkscape="http://www.inkscape.org/namespaces/inkscape"
   width="145.75"
   height="132.82767"
   id="svg2"
   version="1.1"
   inkscape:version="0.92.3 (2405546, 2018-03-11)"
   sodipodi:docname="js.svg">
  <defs
     id="defs4" />
  <sodipodi:namedview
     id="base"
     pagecolor="#ffffff"
     bordercolor="#666666"
     borderopacity="1.0"
     inkscape:pageopacity="0.0"
     inkscape:pageshadow="2"
     inkscape:zoom="4.4120975"
     inkscape:cx="131.1859"
     inkscape:cy="85.152617"
     inkscape:document-units="px"
     inkscape:current-layer="layer1"
     showgrid="false"
     inkscape:window-width="1920"
     inkscape:window-height="1017"
     inkscape:window-x="0"
     inkscape:window-y="34"
     inkscape:window-maximized="1"
     fit-margin-top="0"
     fit-margin-left="0"
     fit-margin-right="0"
     fit-margin-bottom="0" />
  <metadata
     id="metadata7">
    <rdf:RDF>
      <cc:Work
         rdf:about="">
        <dc:format>image/svg+xml</dc:format>
        <dc:type
           rdf:resource="http://purl.org/dc/dcmitype/StillImage" />
        <dc:title></dc:title>
      </cc:Work>
    </rdf:RDF>
  </metadata>
  <g
     inkscape:label="Layer 1"
     inkscape:groupmode="layer"
     id="layer1"
     transform="translate(-326.59295,-193.33348)">
    <g
       id="g3768"
       transform="matrix(1.25,0,0,1.25,-205.08205,131.70849)">
      <path
         id="path3770"
         d="m 439.03,51.2 c 9.97,-0.42 19.96,0.12 29.94,-0.05 11.01,-0.35 22.01,-0.06 33.03,-0.02 8.74,0.02 17.48,-0.04 26.22,0.03 -2.75,30.33 -5.52,60.66 -8.07,91.01 -11.71,3.33 -23.43,6.61 -35.14,9.92 -1.5,0.62 -3.04,0.04 -4.48,-0.35 -11.13,-3.2 -22.26,-6.37 -33.41,-9.45 -2.9,-30.34 -5.63,-60.71 -8.09,-91.09 m 44.78,7.91 c -0.41,14.96 -0.06,29.92 -0.18,44.88 0.11,13.68 -0.2,27.37 0.16,41.05 9.84,-2.32 19.55,-5.17 29.26,-7.98 2.44,-25.97 4.82,-51.94 6.86,-77.94 -12.03,-0.12 -24.07,0.02 -36.1,-0.01"
         inkscape:connector-curvature="0"
         style="fill:#d6ba32"
         sodipodi:nodetypes="ccccccccccccccc" />
    </g>
    <path
       style="fill:#ffda3e;stroke-width:1.25"
       inkscape:connector-curvature="0"
       d="m 399.68045,205.59599 c 15.0375,0.0375 30.0875,-0.1375 45.125,0.0125 -2.55,32.5 -5.525,64.9625 -8.575,97.425 -12.1375,3.5125 -24.275,7.075 -36.575,9.975 -0.45,-17.1 -0.0625,-34.2125 -0.2,-51.3125 0.15,-18.7 -0.2875,-37.4 0.225,-56.1"
       id="path3798"
       sodipodi:nodetypes="cccccc" />
  </g>
</svg>
