<?xml version="1.0" encoding="UTF-8"?>
<!DOCTYPE svg PUBLIC "-//W3C//DTD SVG 1.1//EN" "http://www.w3.org/Graphics/SVG/1.1/DTD/svg11.dtd">
<!-- Creator: CorelDRAW X6 -->
<svg xmlns="http://www.w3.org/2000/svg" xml:space="preserve" width="2.76388in" height="2.74999in" version="1.1" style="shape-rendering:geometricPrecision; text-rendering:geometricPrecision; image-rendering:optimizeQuality; fill-rule:evenodd; clip-rule:evenodd"
viewBox="0 0 2764 2750"
 xmlns:xlink="http://www.w3.org/1999/xlink">
 <defs>
  <style type="text/css">
   <![CDATA[
    .fil13 {fill:#AD4642}
    .fil8 {fill:#FAFEFE}
    .fil9 {fill:url(#id0)}
    .fil16 {fill:url(#id1)}
    .fil6 {fill:url(#id2)}
    .fil4 {fill:url(#id3)}
    .fil3 {fill:url(#id4)}
    .fil7 {fill:url(#id5)}
    .fil5 {fill:url(#id6)}
    .fil17 {fill:url(#id7)}
    .fil11 {fill:url(#id8)}
    .fil1 {fill:url(#id9)}
    .fil2 {fill:url(#id10)}
    .fil10 {fill:url(#id11)}
    .fil0 {fill:url(#id12)}
    .fil12 {fill:url(#id13)}
    .fil14 {fill:url(#id14)}
    .fil15 {fill:url(#id15)}
   ]]>
  </style>
  <linearGradient id="id0" gradientUnits="userSpaceOnUse" x1="-1.10236" y1="1913.03" x2="1932.91" y2="-75.6732">
   <stop offset="0" style="stop-color:#BC0011"/>
   <stop offset="0.0117647" style="stop-color:#BC0011"/>
   <stop offset="0.0705882" style="stop-color:#FEFEFE"/>
   <stop offset="0.168627" style="stop-color:#FEFEFE"/>
   <stop offset="0.270588" style="stop-color:#CA5F4C"/>
   <stop offset="0.329412" style="stop-color:#9B4442"/>
   <stop offset="0.458824" style="stop-color:#B14D40"/>
   <stop offset="0.721569" style="stop-color:#BB4A3F"/>
   <stop offset="0.988235" style="stop-color:#DF573C"/>
   <stop offset="1" style="stop-color:#DF573C"/>
  </linearGradient>
  <linearGradient id="id1" gradientUnits="userSpaceOnUse" x1="466.665" y1="2649.67" x2="250.004" y2="1914.62">
   <stop offset="0" style="stop-color:#9D5447"/>
   <stop offset="0.0117647" style="stop-color:#9D5447"/>
   <stop offset="0.431373" style="stop-color:#AD4744"/>
   <stop offset="0.988235" style="stop-color:#BA4644"/>
   <stop offset="1" style="stop-color:#BA4644"/>
  </linearGradient>
  <linearGradient id="id2" gradientUnits="userSpaceOnUse" x1="1710.53" y1="252.539" x2="2183.2" y2="16.2087">
   <stop offset="0" style="stop-color:#FEFEFE"/>
   <stop offset="0.0117647" style="stop-color:#FEFEFE"/>
   <stop offset="0.541176" style="stop-color:#CA5345"/>
   <stop offset="0.988235" style="stop-color:#C33D3E"/>
   <stop offset="1" style="stop-color:#C33D3E"/>
  </linearGradient>
  <linearGradient id="id3" gradientUnits="userSpaceOnUse" x1="1373.51" y1="1061.5" x2="1416.63" y2="1837.66">
   <stop offset="0" style="stop-color:#FEFEFE"/>
   <stop offset="0.0117647" style="stop-color:#FEFEFE"/>
   <stop offset="0.231373" style="stop-color:#E18E73"/>
   <stop offset="0.560784" style="stop-color:#C34F43"/>
   <stop offset="0.988235" style="stop-color:#B4433F"/>
   <stop offset="1" style="stop-color:#B4433F"/>
  </linearGradient>
  <linearGradient id="id4" gradientUnits="userSpaceOnUse" x1="499.85" y1="1863.32" x2="607.646" y2="2563.88">
   <stop offset="0" style="stop-color:#FEFEFE"/>
   <stop offset="0.0117647" style="stop-color:#FEFEFE"/>
   <stop offset="0.231373" style="stop-color:#E38F75"/>
   <stop offset="0.458824" style="stop-color:#DB684F"/>
   <stop offset="0.988235" style="stop-color:#A50002"/>
   <stop offset="1" style="stop-color:#A50002"/>
  </linearGradient>
  <linearGradient id="id5" gradientUnits="userSpaceOnUse" x1="91.4567" y1="1568.68" x2="137.567" y2="2030.34">
   <stop offset="0" style="stop-color:#FEFEFE"/>
   <stop offset="0.0117647" style="stop-color:#FEFEFE"/>
   <stop offset="0.309804" style="stop-color:#DB6C52"/>
   <stop offset="0.988235" style="stop-color:#C34F42"/>
   <stop offset="1" style="stop-color:#C34F42"/>
  </linearGradient>
  <linearGradient id="id6" gradientUnits="userSpaceOnUse" x1="2131.34" y1="334.803" x2="2253.09" y2="859.504">
   <stop offset="0" style="stop-color:#FEFEFE"/>
   <stop offset="0.0117647" style="stop-color:#FEFEFE"/>
   <stop offset="0.180392" style="stop-color:#E08469"/>
   <stop offset="0.4" style="stop-color:#CA5745"/>
   <stop offset="0.988235" style="stop-color:#B4433F"/>
   <stop offset="1" style="stop-color:#B4433F"/>
  </linearGradient>
  <linearGradient id="id7" gradientUnits="userSpaceOnUse" x1="2116.53" y1="90.5394" x2="2534.43" y2="275.012">
   <stop offset="0" style="stop-color:#BA463E"/>
   <stop offset="0.0117647" style="stop-color:#BA463E"/>
   <stop offset="0.439216" style="stop-color:#A54744"/>
   <stop offset="0.988235" style="stop-color:#925147"/>
   <stop offset="1" style="stop-color:#925147"/>
  </linearGradient>
  <linearGradient id="id8" gradientUnits="userSpaceOnUse" x1="2469.41" y1="1697.89" x2="1927.24" y2="1211.96">
   <stop offset="0" style="stop-color:#964944"/>
   <stop offset="0.0117647" style="stop-color:#964944"/>
   <stop offset="0.988235" style="stop-color:#AD4340"/>
   <stop offset="1" style="stop-color:#AD4340"/>
  </linearGradient>
  <linearGradient id="id9" gradientUnits="userSpaceOnUse" x1="2500.84" y1="2139.24" x2="2077.76" y2="1855.33">
   <stop offset="0" style="stop-color:#9E4B42"/>
   <stop offset="0.0117647" style="stop-color:#9E4B42"/>
   <stop offset="0.988235" style="stop-color:#A54A44"/>
   <stop offset="1" style="stop-color:#A54A44"/>
  </linearGradient>
  <linearGradient id="id10" gradientUnits="userSpaceOnUse" xlink:href="#id9" x1="1857.61" y1="2791.27" x2="1343.63" y2="2446.35">
  </linearGradient>
  <linearGradient id="id11" gradientUnits="userSpaceOnUse" x1="1517.86" y1="2272.25" x2="1025.75" y2="2150.79">
   <stop offset="0" style="stop-color:#A24441"/>
   <stop offset="0.0117647" style="stop-color:#A24441"/>
   <stop offset="0.541176" style="stop-color:#A94340"/>
   <stop offset="0.988235" style="stop-color:#B34346"/>
   <stop offset="1" style="stop-color:#B34346"/>
  </linearGradient>
  <linearGradient id="id12" gradientUnits="userSpaceOnUse" x1="1863.93" y1="1983.11" x2="1481.48" y2="1307.85">
   <stop offset="0" style="stop-color:#F69377"/>
   <stop offset="0.0117647" style="stop-color:#F69377"/>
   <stop offset="0.411765" style="stop-color:#DD5B4D"/>
   <stop offset="0.988235" style="stop-color:#A93C40"/>
   <stop offset="1" style="stop-color:#A93C40"/>
  </linearGradient>
  <linearGradient id="id13" gradientUnits="userSpaceOnUse" x1="2485.07" y1="570.287" x2="2257.69" y2="327.209">
   <stop offset="0" style="stop-color:#924A44"/>
   <stop offset="0.0117647" style="stop-color:#924A44"/>
   <stop offset="0.988235" style="stop-color:#AD4A44"/>
   <stop offset="1" style="stop-color:#AD4A44"/>
  </linearGradient>
  <radialGradient id="id14" gradientUnits="userSpaceOnUse" cx="2014.04" cy="1106.25" r="472.484" fx="2014.04" fy="1106.25">
   <stop offset="0" style="stop-color:#B4433F"/>
   <stop offset="0" style="stop-color:#B4433F"/>
   <stop offset="0.988235" style="stop-color:#974643"/>
   <stop offset="1" style="stop-color:#974643"/>
  </radialGradient>
  <radialGradient id="id15" gradientUnits="userSpaceOnUse" cx="1050.19" cy="2021.43" r="483.894" fx="1050.19" fy="2021.43">
   <stop offset="0" style="stop-color:#B04340"/>
   <stop offset="0" style="stop-color:#B04340"/>
   <stop offset="0.988235" style="stop-color:#994744"/>
   <stop offset="1" style="stop-color:#994744"/>
  </radialGradient>
 </defs>
 <g id="__x0023_Layer_x0020_1">
  <metadata id="CorelCorpID_0Corel-Layer"/>
  <polygon class="fil0" points="577,2740 2612,2602 2768,551 2148,1807 "/>
  <polygon class="fil1" points="1964,2023 2615,2601 2440,1394 "/>
  <polygon class="fil2" points="584,2737 2617,2601 1336,2500 "/>
  <polygon class="fil3" points="202,1840 586,2738 906,1689 "/>
  <polygon class="fil4" points="827,1663 1964,2026 1669,873 "/>
  <polygon class="fil5" points="1683,956 2701,889 1905,239 "/>
  <polygon class="fil6" points="1565,3 2329,7 1860,266 "/>
  <polygon class="fil7" points="54,1407 16,2192 213,1834 "/>
  <path class="fil8" d="M43 1394l160 453 694 -156 792 -736 224 -710 -352 -249 -599 224c-189,175 -555,523 -568,529 -13,7 -242,439 -351,645z"/>
  <path class="fil9" d="M604 580c409,-405 936,-645 1138,-441 202,204 -12,700 -421,1105 -409,405 -929,658 -1131,454 -202,-204 6,-713 414,-1118z"/>
  <path class="fil10" d="M586 2737l318 -1052 1054 339c-381,358 -805,660 -1372,713z"/>
  <path class="fil11" d="M1691 953l271 1072c318,-335 604,-695 744,-1140l-1015 68z"/>
  <path class="fil12" d="M2703 890c108,-327 133,-796 -378,-883l-419 232 797 652z"/>
  <path class="fil13" d="M16 2187c15,540 404,548 570,552l-383 -895 -187 342z"/>
  <path class="fil14" d="M1692 954c245,150 738,452 748,458 16,9 213,-332 257,-525l-1005 67z"/>
  <path class="fil15" d="M903 1686l424 819c251,-136 447,-302 627,-480l-1052 -339z"/>
  <path class="fil16" d="M202 1846l-60 716c113,155 270,168 433,156 -118,-295 -355,-884 -373,-873z"/>
  <path class="fil17" d="M1904 241l843 118c-45,-191 -183,-314 -419,-352l-424 234z"/>
 </g>
</svg>
