<?xml version="1.0" encoding="UTF-8" standalone="no"?>
<!-- Created with Inkscape (http://www.inkscape.org/) -->

<svg
   xmlns:dc="http://purl.org/dc/elements/1.1/"
   xmlns:cc="http://creativecommons.org/ns#"
   xmlns:rdf="http://www.w3.org/1999/02/22-rdf-syntax-ns#"
   xmlns:svg="http://www.w3.org/2000/svg"
   xmlns="http://www.w3.org/2000/svg"
   xmlns:sodipodi="http://sodipodi.sourceforge.net/DTD/sodipodi-0.dtd"
   xmlns:inkscape="http://www.inkscape.org/namespaces/inkscape"
   width="2000"
   height="1122.5197"
   viewBox="0 0 1875.0001 1052.3622"
   id="svg2"
   version="1.1"
   inkscape:version="0.92.3 (2405546, 2018-03-11)"
   sodipodi:docname="talk.svg"
   inkscape:export-filename="/home/meisterluk/Desktop/rustgraz-logo/uhrturm.small.png"
   inkscape:export-xdpi="36.290001"
   inkscape:export-ydpi="36.290001">
  <defs
     id="defs4" />
  <sodipodi:namedview
     id="base"
     pagecolor="#ffffff"
     bordercolor="#666666"
     borderopacity="1.0"
     inkscape:pageopacity="0.0"
     inkscape:pageshadow="2"
     inkscape:zoom="0.733"
     inkscape:cx="1000"
     inkscape:cy="561.25983"
     inkscape:document-units="px"
     inkscape:current-layer="layer1"
     showgrid="false"
     inkscape:window-width="1920"
     inkscape:window-height="1017"
     inkscape:window-x="0"
     inkscape:window-y="34"
     inkscape:window-maximized="1"
     showguides="true"
     inkscape:guide-bbox="true"
     units="px">
    <sodipodi:guide
       position="1769.3568,885.78317"
       orientation="0,1"
       id="guide848"
       inkscape:locked="false" />
    <sodipodi:guide
       position="990.02037,515.15911"
       orientation="0,1"
       id="guide884"
       inkscape:locked="false" />
    <sodipodi:guide
       position="724.76528,416.58626"
       orientation="0,1"
       id="guide894"
       inkscape:locked="false" />
  </sodipodi:namedview>
  <metadata
     id="metadata7">
    <rdf:RDF>
      <cc:Work
         rdf:about="">
        <dc:format>image/svg+xml</dc:format>
        <dc:type
           rdf:resource="http://purl.org/dc/dcmitype/StillImage" />
        <dc:title />
      </cc:Work>
    </rdf:RDF>
  </metadata>
  <g
     inkscape:label="Layer 1"
     inkscape:groupmode="layer"
     id="layer1"
     transform="translate(0,6.8774416e-5)">
    <path
       style="fill:#885c31;fill-opacity:1;stroke:none;stroke-width:0.93750006px;stroke-linecap:butt;stroke-linejoin:miter;stroke-opacity:1"
       d="M 1769.3568,166.57898 H 641.94852 l 65.82027,370.55048 H 1836.1422 Z"
       id="path846"
       inkscape:connector-curvature="0"
       sodipodi:nodetypes="ccccc" />
    <path
       style="fill:#858895;fill-opacity:1;fill-rule:evenodd;stroke:none;stroke-width:1px;stroke-linecap:butt;stroke-linejoin:miter;stroke-opacity:1"
       d="M 378.72215,373.83152 422.65126,111.58806 552.4418,428.41011 Z"
       id="path4315"
       inkscape:connector-curvature="0" />
    <path
       style="fill:#454857;fill-opacity:1;fill-rule:evenodd;stroke:none;stroke-width:1px;stroke-linecap:butt;stroke-linejoin:miter;stroke-opacity:1"
       d="M 188.36269,411.7703 338.7866,146.19888 423.98244,107.59451 378.05656,376.49389 Z"
       id="path4313"
       inkscape:connector-curvature="0" />
    <path
       style="fill:#f7efde;fill-opacity:1;fill-rule:evenodd;stroke:none;stroke-width:1px;stroke-linecap:butt;stroke-linejoin:miter;stroke-opacity:1"
       d="m 187.69709,409.77352 190.35947,-37.27318 172.38846,49.91944 -0.66559,5.32474 h -12.64626 l -21.29896,29.95166 -134.44969,-32.61403 -162.40458,21.96455 -23.96133,-29.95166 -7.98711,-1.33119 z"
       id="path4311"
       inkscape:connector-curvature="0" />
    <path
       style="fill:#a79e95;fill-opacity:1;fill-rule:evenodd;stroke:none;stroke-width:1px;stroke-linecap:butt;stroke-linejoin:miter;stroke-opacity:1"
       d="m 88.245937,456.16111 68.949493,-43.76998 41.8874,1.41194 22.59096,30.59192 159.07801,-24.47354 134.13382,34.35709 22.59096,-30.59193 40.94612,1.88258 54.83014,46.35853 -90.12852,-0.70596 48.00579,46.12321 -211.79025,-28.70935 -234.85185,23.29693 76.47982,-58.12466 z"
       id="path4309"
       inkscape:connector-curvature="0"
       sodipodi:nodetypes="ccccccccccccccc" />
    <path
       style="fill:#342f34;fill-opacity:1;fill-rule:evenodd;stroke:none;stroke-width:1px;stroke-linecap:butt;stroke-linejoin:miter;stroke-opacity:1"
       d="m 88.523807,456.00855 21.298963,5.01559 -5.32474,113.81633 515.16862,3.32796 0.66559,-107.1604 h -77.67856 l 46.59385,46.80758 -210.37831,-29.65063 -232.49863,22.59096 77.65643,-57.88934 z"
       id="path4307"
       inkscape:connector-curvature="0"
       sodipodi:nodetypes="ccccccccccc" />
    <path
       style="fill:#fef4d8;fill-opacity:1;fill-rule:evenodd;stroke:none;stroke-width:1px;stroke-linecap:butt;stroke-linejoin:miter;stroke-opacity:1"
       d="m 183.70354,576.17165 354.09523,1.33119 22.63014,351.43285 -202.34013,30.61726 -190.35946,-61.23451 z"
       id="path4301"
       inkscape:connector-curvature="0" />
    <path
       style="fill:none;fill-rule:evenodd;stroke:#000000;stroke-width:3;stroke-linecap:butt;stroke-linejoin:miter;stroke-miterlimit:4;stroke-dasharray:none;stroke-opacity:1"
       d="m 168.57143,901.82649 17.14286,-320"
       id="path4147"
       inkscape:connector-curvature="0" />
    <path
       style="fill:none;fill-rule:evenodd;stroke:#000000;stroke-width:3;stroke-linecap:butt;stroke-linejoin:miter;stroke-miterlimit:4;stroke-dasharray:none;stroke-opacity:1"
       d="m 357.14286,960.39792 10,-380"
       id="path4149"
       inkscape:connector-curvature="0" />
    <path
       style="fill:none;fill-rule:evenodd;stroke:#000000;stroke-width:3;stroke-linecap:butt;stroke-linejoin:miter;stroke-miterlimit:4;stroke-dasharray:none;stroke-opacity:1"
       d="m 561.42857,927.54078 -20,-345.71429"
       id="path4151"
       inkscape:connector-curvature="0" />
    <path
       style="fill:none;fill-rule:evenodd;stroke:#000000;stroke-width:3;stroke-linecap:butt;stroke-linejoin:miter;stroke-miterlimit:4;stroke-dasharray:none;stroke-opacity:1"
       d="M 621.42857,471.12052 618.57143,578.96935 104.28571,576.1122 110,461.82649"
       id="path4153"
       inkscape:connector-curvature="0"
       sodipodi:nodetypes="cccc" />
    <path
       style="fill:none;fill-rule:evenodd;stroke:#000000;stroke-width:3;stroke-linecap:butt;stroke-linejoin:miter;stroke-miterlimit:4;stroke-dasharray:none;stroke-opacity:1"
       d="m 145.71429,510.39792 234.97504,-21.89921 209.29403,29.04207"
       id="path4155"
       inkscape:connector-curvature="0"
       sodipodi:nodetypes="ccc" />
    <path
       style="fill:none;fill-rule:evenodd;stroke:#000000;stroke-width:3;stroke-linecap:butt;stroke-linejoin:miter;stroke-miterlimit:4;stroke-dasharray:none;stroke-opacity:1"
       d="M 187.14286,410.39792 338.57143,146.1122 422.85714,107.54078 550,421.82649"
       id="path4159"
       inkscape:connector-curvature="0" />
    <path
       style="fill:none;fill-rule:evenodd;stroke:#000000;stroke-width:3;stroke-linecap:butt;stroke-linejoin:miter;stroke-miterlimit:4;stroke-dasharray:none;stroke-opacity:1"
       d="M 378.57143,371.82649 422.85714,108.96935"
       id="path4161"
       inkscape:connector-curvature="0" />
    <path
       style="fill:none;fill-rule:evenodd;stroke:#000000;stroke-width:3;stroke-linecap:butt;stroke-linejoin:miter;stroke-miterlimit:4;stroke-dasharray:none;stroke-opacity:1"
       d="M 88.604702,455.83529 157.14286,412.54078 200,413.96935 l 25,35"
       id="path4163"
       inkscape:connector-curvature="0"
       sodipodi:nodetypes="cccc" />
    <path
       style="fill:none;fill-rule:evenodd;stroke:#000000;stroke-width:3;stroke-linecap:butt;stroke-linejoin:miter;stroke-miterlimit:4;stroke-dasharray:none;stroke-opacity:1"
       d="m 513.57143,456.82649 23.57143,-32.85714 41.42857,1.42857 54.95841,47.58022"
       id="path4165"
       inkscape:connector-curvature="0"
       sodipodi:nodetypes="cccc" />
    <path
       style="fill:none;fill-rule:evenodd;stroke:#000000;stroke-width:3;stroke-linecap:butt;stroke-linejoin:miter;stroke-miterlimit:4;stroke-dasharray:none;stroke-opacity:1"
       d="m 226.42857,442.54078 154.28572,-22.14286 127.14285,32.14286"
       id="path4167"
       inkscape:connector-curvature="0" />
    <path
       style="fill:none;fill-rule:evenodd;stroke:#000000;stroke-width:3;stroke-linecap:butt;stroke-linejoin:miter;stroke-miterlimit:4;stroke-dasharray:none;stroke-opacity:1"
       d="m 380.71429,421.82649 0.98287,58.81507"
       id="path4169"
       inkscape:connector-curvature="0"
       sodipodi:nodetypes="cc" />
    <path
       style="fill:none;fill-rule:evenodd;stroke:#000000;stroke-width:3;stroke-linecap:butt;stroke-linejoin:miter;stroke-miterlimit:4;stroke-dasharray:none;stroke-opacity:1"
       d="m 380,492.54078 -2.85714,74.28571"
       id="path4173"
       inkscape:connector-curvature="0"
       sodipodi:nodetypes="cc" />
    <path
       style="fill:#99bdbb;fill-opacity:1;fill-rule:evenodd;stroke:#000000;stroke-width:3;stroke-linecap:butt;stroke-linejoin:miter;stroke-miterlimit:4;stroke-dasharray:none;stroke-opacity:1"
       d="m 235.71429,437.54078 2.14285,-32.14286 19.28572,-1.42857 1.42857,31.42857"
       id="path4175"
       inkscape:connector-curvature="0" />
    <path
       style="fill:#99bdbb;fill-opacity:1;fill-rule:evenodd;stroke:#000000;stroke-width:3;stroke-linecap:butt;stroke-linejoin:miter;stroke-miterlimit:4;stroke-dasharray:none;stroke-opacity:1"
       d="m 302.85714,427.54078 3.57143,-30.71429 22.85714,-4.28571 -0.71428,31.42857"
       id="path4177"
       inkscape:connector-curvature="0" />
    <path
       style="fill:#99bdbb;fill-opacity:1;fill-rule:evenodd;stroke:#000000;stroke-width:3;stroke-linecap:butt;stroke-linejoin:miter;stroke-miterlimit:4;stroke-dasharray:none;stroke-opacity:1"
       d="m 423.57143,428.25506 0.71428,-33.57143 24.28572,7.14286 L 450,434.68363"
       id="path4179"
       inkscape:connector-curvature="0" />
    <path
       style="fill:#99bdbb;fill-opacity:1;fill-rule:evenodd;stroke:#000000;stroke-width:3;stroke-linecap:butt;stroke-linejoin:miter;stroke-miterlimit:4;stroke-dasharray:none;stroke-opacity:1"
       d="m 485.71429,441.82649 1.42857,-30 17.85714,5.71429 0.71429,30.71428"
       id="path4181"
       inkscape:connector-curvature="0" />
    <ellipse
       style="opacity:0.97000002;fill:#ffffff;fill-opacity:1;stroke:#000000;stroke-width:2.60884023;stroke-linecap:round;stroke-linejoin:miter;stroke-miterlimit:4;stroke-dasharray:none;stroke-dashoffset:0;stroke-opacity:1"
       id="path4183"
       cx="266.02161"
       cy="694.23224"
       rx="52.797958"
       ry="85.428886" />
    <ellipse
       style="opacity:0.97000002;fill:#ffffff;fill-opacity:1;stroke:#000000;stroke-width:2.78302717;stroke-linecap:round;stroke-linejoin:miter;stroke-miterlimit:4;stroke-dasharray:none;stroke-dashoffset:0;stroke-opacity:1"
       id="path4183-3"
       cx="463.56281"
       cy="700.92694"
       rx="51.721081"
       ry="84.542839" />
    <path
       d="m 525.67687,696.98846 -5.25554,-5.19877 c -0.0441,-0.81804 -0.0945,-1.63417 -0.14951,-2.44648 l 4.51634,-6.73164 c 0.45934,-0.68426 0.6651,-1.69726 0.54067,-2.67777 -0.12078,-0.98432 -0.5526,-1.79472 -1.13985,-2.14449 l -5.77349,-3.44992 c -0.14472,-0.79894 -0.29667,-1.59213 -0.4521,-2.3815 l 3.60135,-7.99312 c 0.3672,-0.8123 0.44261,-1.86926 0.20332,-2.79625 -0.2392,-0.92316 -0.76183,-1.5845 -1.38026,-1.74694 l -6.08801,-1.58258 c -0.23686,-0.73776 -0.48319,-1.46405 -0.73206,-2.18464 l 2.55842,-8.97361 c 0.26202,-0.91361 0.20811,-1.97629 -0.14106,-2.80582 -0.34814,-0.83332 -0.93774,-1.32071 -1.56687,-1.2825 l -6.17901,0.34405 c -0.31932,-0.63838 -0.64463,-1.27101 -0.97596,-1.8922 l 1.41971,-9.61774 c 0.14359,-0.97668 -0.0366,-1.99923 -0.48198,-2.70833 -0.44139,-0.70718 -1.08245,-0.99962 -1.69365,-0.77026 l -6.01747,2.26683 c -0.38994,-0.52753 -0.78588,-1.04932 -1.18653,-1.55964 l 0.21648,-9.87386 c 0.0235,-0.99962 -0.28109,-1.94953 -0.80259,-2.50381 -0.52263,-0.55811 -1.18408,-0.64222 -1.7546,-0.22746 l -5.6144,4.09022 c -0.45332,-0.39755 -0.90787,-0.79128 -1.36721,-1.17163 l -0.99267,-9.73052 c -0.10052,-0.98624 -0.51437,-1.82339 -1.09326,-2.20564 -0.57767,-0.38417 -1.24033,-0.25994 -1.74869,0.32492 l -5.00555,5.75497 c -0.49276,-0.25039 -0.98798,-0.49121 -1.48798,-0.72057 l -2.15891,-9.22783 c -0.21882,-0.94037 -0.72596,-1.63036 -1.34194,-1.8253 -0.61485,-0.19304 -1.24756,0.13387 -1.67459,0.86391 l -4.21253,7.22287 c -0.50836,-0.0899 -1.02029,-0.17204 -1.531,-0.23893 l -3.25339,-8.40023 c -0.32887,-0.85052 -0.91133,-1.36849 -1.53812,-1.36849 -0.62679,0 -1.20925,0.51797 -1.53701,1.36849 l -3.25329,8.40023 c -0.51192,0.0669 -1.02386,0.14904 -1.53222,0.23893 l -4.21375,-7.22287 c -0.42703,-0.73012 -1.06095,-1.05695 -1.6745,-0.86391 -0.61598,0.19687 -1.12312,0.88493 -1.34203,1.8253 l -2.1589,9.22783 c -0.50001,0.22936 -0.99513,0.4721 -1.48911,0.72057 l -5.00443,-5.75497 c -0.50836,-0.58677 -1.17093,-0.71102 -1.7499,-0.32492 -0.57768,0.38225 -0.99268,1.2194 -1.09317,2.20564 l -0.99276,9.73052 c -0.45925,0.38035 -0.9138,0.77216 -1.36712,1.17163 l -5.61439,-4.09022 c -0.57053,-0.41666 -1.23554,-0.33065 -1.75471,0.22746 -0.5214,0.55428 -0.82644,1.50419 -0.80249,2.50381 l 0.21524,9.87386 c -0.39951,0.51032 -0.79535,1.03211 -1.18651,1.55964 l -6.01747,-2.26683 c -0.6112,-0.22744 -1.25226,0.063 -1.69488,0.77026 -0.44488,0.7091 -0.62547,1.73165 -0.48197,2.70833 l 1.41736,9.61774 c -0.32889,0.62309 -0.65431,1.25382 -0.97361,1.8922 l -6.17891,-0.34405 c -0.62322,-0.0286 -1.21883,0.44918 -1.56687,1.2825 -0.34928,0.82953 -0.40196,1.89221 -0.14238,2.80582 l 2.55964,8.97361 c -0.24878,0.72059 -0.49522,1.44688 -0.73319,2.18464 l -6.0881,1.58258 c -0.61833,0.16054 -1.13985,0.82186 -1.38026,1.74694 -0.23921,0.92699 -0.16144,1.98395 0.20332,2.79625 l 3.60143,7.99312 c -0.15674,0.78937 -0.3086,1.58256 -0.4521,2.3815 l -5.7747,3.44992 c -0.58612,0.34977 -1.01785,1.16017 -1.13984,2.14449 -0.12201,0.98243 0.0827,1.99351 0.54056,2.67777 l 4.51767,6.73164 c -0.0563,0.81231 -0.10646,1.63035 -0.14951,2.44648 l -5.25564,5.19877 c -0.53222,0.52562 -0.85642,1.45452 -0.85642,2.45796 0,1.00343 0.3242,1.93234 0.85642,2.45604 l 5.25564,5.19878 c 0.0432,0.81803 0.093,1.63416 0.14951,2.44648 l -4.51767,6.73357 c -0.45811,0.68234 -0.66257,1.69534 -0.54056,2.67584 0.12199,0.98431 0.55372,1.79281 1.13984,2.14449 l 5.7747,3.44993 c 0.1435,0.79892 0.29536,1.59213 0.4521,2.3815 l -3.60143,7.99501 c -0.36598,0.81423 -0.44375,1.87119 -0.20332,2.79435 0.24041,0.92699 0.76305,1.5883 1.38148,1.74694 l 6.08688,1.58258 c 0.23797,0.73776 0.48197,1.46405 0.73319,2.18844 l -2.55964,8.96979 c -0.26071,0.91171 -0.2069,1.97248 0.14238,2.80583 0.34917,0.83524 0.94365,1.32263 1.56687,1.28249 l 6.17647,-0.34596 c 0.32174,0.64222 0.64594,1.27103 0.97605,1.89603 l -1.41736,9.61965 c -0.1435,0.97477 0.0376,1.9935 0.48197,2.7026 0.4414,0.71292 1.08368,0.9977 1.69488,0.76834 l 6.01747,-2.26491 c 0.39116,0.53136 0.787,1.04741 1.18651,1.55582 l -0.21524,9.87577 c -0.0234,0.99961 0.28109,1.94762 0.80249,2.50573 0.51917,0.5562 1.18418,0.64029 1.75471,0.22363 l 5.61439,-4.0883 c 0.4521,0.40137 0.90665,0.79127 1.36712,1.17162 l 0.99276,9.72476 c 0.10052,0.99008 0.51427,1.82723 1.09317,2.20759 0.57776,0.38417 1.24154,0.25994 1.7499,-0.32302 l 5.00199,-5.75878 c 0.49398,0.25038 0.99042,0.49503 1.49033,0.72439 l 2.1589,9.224 c 0.21891,0.93654 0.72605,1.63035 1.34203,1.82147 0.61477,0.19879 1.24757,-0.12996 1.6745,-0.86391 l 4.21385,-7.21904 c 0.50826,0.0937 1.0202,0.17203 1.53212,0.24465 l 3.25339,8.39831 c 0.32767,0.84672 0.91022,1.36851 1.53691,1.36851 0.62678,0 1.20924,-0.51987 1.53822,-1.36851 l 3.25329,-8.39831 c 0.51193,-0.0726 1.02264,-0.15099 1.531,-0.24465 l 4.21263,7.21904 c 0.42693,0.73395 1.06086,1.0627 1.67449,0.86391 0.61598,-0.19304 1.12312,-0.88493 1.34194,-1.82147 l 2.159,-9.224 c 0.49991,-0.22936 0.99635,-0.47401 1.49033,-0.72439 l 5.00321,5.75878 c 0.50826,0.58296 1.17092,0.70719 1.74859,0.32302 0.57897,-0.38036 0.99276,-1.21942 1.09326,-2.20759 l 0.99276,-9.72476 c 0.45925,-0.38035 0.9138,-0.77599 1.36712,-1.17162 l 5.61439,4.0883 c 0.57053,0.41666 1.23432,0.33257 1.75461,-0.22363 0.5215,-0.55811 0.82532,-1.50422 0.80259,-2.50573 l -0.21526,-9.87577 c 0.39943,-0.51031 0.79537,-1.02446 1.18531,-1.55582 l 6.01747,2.26491 c 0.6112,0.22936 1.25226,-0.0553 1.69365,-0.76834 0.44497,-0.7091 0.62557,-1.72783 0.48207,-2.7026 l -1.41736,-9.61965 c 0.33011,-0.625 0.65542,-1.25381 0.97361,-1.89603 l 6.17892,0.34596 c 0.62312,0.0401 1.21881,-0.44725 1.56687,-1.28249 0.34926,-0.83335 0.40307,-1.89412 0.14115,-2.80583 l -2.55842,-8.96979 c 0.25,-0.72439 0.49511,-1.45068 0.73197,-2.18844 l 6.0881,-1.58258 c 0.61956,-0.15864 1.14106,-0.81995 1.38026,-1.74694 0.2392,-0.92316 0.16389,-1.98012 -0.20332,-2.79435 l -3.60144,-7.99501 c 0.15553,-0.78937 0.30738,-1.58258 0.4521,-2.3815 l 5.77349,-3.44993 c 0.58725,-0.35168 1.02029,-1.16018 1.13985,-2.14449 0.12443,-0.98243 -0.0817,-1.9935 -0.54058,-2.67584 l -4.51643,-6.73357 c 0.0554,-0.81232 0.10527,-1.63035 0.1495,-2.44648 l 5.25555,-5.19878 c 0.53231,-0.5237 0.85641,-1.45451 0.85641,-2.45604 0,-1.00153 -0.32288,-1.93234 -0.85519,-2.45796 z M 490.5014,766.6578 c -2.00706,-0.6919 -3.28326,-3.8532 -2.85266,-7.06996 0.42937,-3.21291 2.40646,-5.25801 4.41229,-4.56611 2.00705,0.68615 3.28569,3.85319 2.85509,7.06421 -0.43059,3.21101 -2.4089,5.25803 -4.41472,4.57186 z m -1.78579,-19.30046 c -1.83124,-0.6269 -3.63252,1.23472 -4.0248,4.16667 l -1.8659,13.91439 c -5.75789,4.17621 -12.15215,6.49655 -18.8861,6.49655 -6.88825,0 -13.42123,-2.43502 -19.28206,-6.78899 l -1.86466,-13.91437 c -0.39228,-2.92814 -2.19366,-4.79359 -4.02359,-4.16476 l -7.68726,2.63761 c -1.42694,-2.3471 -2.75452,-4.84709 -3.97456,-7.48662 h 37.40388 c 0.42337,0 0.70568,-0.12231 0.70568,-0.73776 v -21.14298 c 0,-0.61543 -0.28231,-0.73776 -0.70568,-0.73776 h -10.93944 v -13.40214 h 11.83172 c 1.08002,0 5.77461,0.49313 7.27575,10.08219 0.47004,2.94917 1.50225,12.54206 2.20793,15.61353 0.70331,3.4442 3.56668,10.32492 6.61796,10.32492 h 18.63845 c 0.21178,0 0.43784,-0.0383 0.67582,-0.107 -1.29293,2.80773 -2.7115,5.46445 -4.23893,7.94726 z m -51.73288,19.00995 c -2.00706,0.6919 -3.98292,-1.35322 -4.41473,-4.56614 -0.42939,-3.21864 0.84682,-6.37805 2.85386,-7.06995 2.00696,-0.68616 3.98414,1.35894 4.41474,4.57187 0.42938,3.211 -0.84805,6.37614 -2.85387,7.06422 z m -14.18908,-91.94381 c 0.83246,3.00268 -0.014,6.52141 -1.89106,7.84977 -1.8766,1.3322 -4.07259,-0.0229 -4.90506,-3.02752 -0.83254,-3.00458 0.014,-6.51758 1.89098,-7.84977 1.87782,-1.33028 4.0726,0.0229 4.90514,3.02752 z m -4.36091,16.5195 8.00771,-5.68615 c 1.71037,-1.2137 2.4831,-4.41707 1.72362,-7.15597 l -1.64943,-5.95948 h 6.4863 v 46.72018 h -13.08633 c -1.13505,-6.37615 -1.74381,-13.10588 -1.74381,-20.06116 0,-2.65482 0.0893,-5.27906 0.26194,-7.85742 z m 35.14082,-4.53747 v -13.77102 h 15.44621 c 0.79781,0 5.63355,1.47364 5.63355,7.25152 0,4.79741 -3.70905,6.5176 -6.75912,6.5176 h -14.32064 z m 56.13447,12.39489 c 0,1.82721 -0.0423,3.63532 -0.12556,5.43004 h -4.69582 c -0.47014,0 -0.65909,0.49312 -0.65909,1.22897 v 3.4461 c 0,8.11163 -2.86224,9.87578 -5.3704,10.32493 -2.38854,0.43005 -5.03664,-1.59786 -5.36319,-3.93349 -1.40899,-12.66436 -3.75694,-15.36889 -7.46478,-20.04204 4.60133,-4.66935 9.38928,-11.55772 9.38928,-20.7779 0,-9.95605 -4.27123,-16.22707 -7.18248,-19.30239 -4.08462,-4.30236 -8.60699,-5.16435 -9.82703,-5.16435 h -48.56448 c 6.58565,-11.74504 15.51081,-20.065 25.60578,-23.09251 l 5.72436,9.5967 c 1.29414,2.16553 3.43755,2.2458 4.79152,0.17584 l 6.40507,-9.78975 c 13.42122,3.99274 24.78393,17.34326 31.33249,35.65941 l -4.38487,15.82569 c -0.75714,2.73891 0.016,5.94226 1.72475,7.15595 l 8.44196,5.99197 c 0.14595,2.39488 0.22249,4.81461 0.22249,7.26683 z m -48.53096,-80.04588 c 1.48309,-2.27063 3.83584,-2.18081 5.25554,0.19306 1.41736,2.37958 1.36355,6.14296 -0.12321,8.41168 -1.4831,2.27065 -3.83585,2.18274 -5.25554,-0.19495 -1.41615,-2.37577 -1.36233,-6.13915 0.12321,-8.40979 z m 43.51339,55.95757 c 0.83124,-3.00267 3.02724,-4.35779 4.90393,-3.02562 1.8767,1.33029 2.72343,4.84711 1.89098,7.84978 -0.83124,3.00459 -3.02724,4.35971 -4.90506,3.02753 -1.87426,-1.33028 -2.72108,-4.84519 -1.88985,-7.85169 z"
       id="path3"
       inkscape:connector-curvature="0"
       style="stroke-width:1.51198113" />
    <path
       d="m 327.86686,692.2946 -5.28175,-5.24791 c -0.0444,-0.82577 -0.095,-1.64961 -0.15025,-2.46961 l 4.53886,-6.79526 c 0.46162,-0.69072 0.66841,-1.71329 0.54336,-2.70307 -0.12138,-0.99362 -0.55535,-1.81167 -1.14553,-2.16475 l -5.80226,-3.48253 c -0.14545,-0.80648 -0.29816,-1.60718 -0.45436,-2.40401 l 3.6193,-8.06866 c 0.36903,-0.81998 0.44482,-1.88692 0.20433,-2.82267 -0.24039,-0.93189 -0.76563,-1.59947 -1.38714,-1.76346 l -6.11835,-1.59752 c -0.23804,-0.74474 -0.4856,-1.4779 -0.73571,-2.20529 l 2.57116,-9.05842 c 0.26333,-0.92224 0.20916,-1.99497 -0.14175,-2.83233 -0.34989,-0.8412 -0.94242,-1.3332 -1.57469,-1.29462 l -6.20981,0.3473 c -0.32089,-0.64442 -0.64784,-1.28303 -0.98082,-1.91009 l 1.42678,-9.70863 c 0.14432,-0.98591 -0.0368,-2.01813 -0.48437,-2.73393 -0.44359,-0.71386 -1.08785,-1.00905 -1.7021,-0.77753 l -6.04747,2.28824 c -0.39187,-0.53251 -0.78978,-1.05923 -1.19242,-1.57438 l 0.21755,-9.96716 c 0.0236,-1.00906 -0.28249,-1.96796 -0.8066,-2.52748 -0.52524,-0.56338 -1.18996,-0.64828 -1.76334,-0.2296 l -5.64239,4.12886 c -0.45558,-0.4013 -0.91239,-0.79875 -1.37402,-1.18269 l -0.99762,-9.82248 c -0.10099,-0.99556 -0.51694,-1.84063 -1.09871,-2.22649 -0.58055,-0.38781 -1.24651,-0.2624 -1.75741,0.32799 l -5.03049,5.80935 c -0.49523,-0.25274 -0.99291,-0.49584 -1.4954,-0.72737 l -2.16967,-9.31504 c -0.21991,-0.94925 -0.72958,-1.64576 -1.34863,-1.84255 -0.61792,-0.19486 -1.25378,0.13513 -1.68294,0.87208 l -4.23353,7.29112 c -0.51089,-0.0907 -1.02537,-0.17365 -1.53862,-0.24117 l -3.26961,-8.47963 c -0.33052,-0.85856 -0.91588,-1.38142 -1.54579,-1.38142 -0.62991,0 -1.21527,0.52286 -1.54467,1.38142 l -3.26951,8.47963 c -0.51448,0.0676 -1.02896,0.15043 -1.53985,0.24117 l -4.23476,-7.29112 c -0.42916,-0.73702 -1.06624,-1.06694 -1.68284,-0.87208 -0.61905,0.19873 -1.12872,0.8933 -1.34873,1.84255 l -2.16966,9.31504 c -0.5025,0.23153 -1.00008,0.47656 -1.49653,0.72737 l -5.02937,-5.80935 c -0.51089,-0.59231 -1.17676,-0.71773 -1.75863,-0.32799 -0.58055,0.38586 -0.99762,1.23093 -1.09861,2.22649 l -0.99772,9.82248 c -0.46153,0.38394 -0.91834,0.77945 -1.37393,1.18269 l -5.64238,-4.12886 c -0.57337,-0.4206 -1.2417,-0.33378 -1.76344,0.2296 -0.52402,0.55952 -0.83057,1.51842 -0.8065,2.52748 l 0.21632,9.96716 c -0.4015,0.51515 -0.79932,1.04187 -1.19243,1.57438 l -6.04747,-2.28824 c -0.61424,-0.2296 -1.2585,0.0636 -1.70332,0.77753 -0.44709,0.7158 -0.62859,1.74802 -0.48437,2.73393 l 1.42442,9.70863 c -0.33053,0.62898 -0.65756,1.26567 -0.97847,1.91009 l -6.20971,-0.3473 c -0.62632,-0.0289 -1.2249,0.45342 -1.57468,1.29462 -0.35101,0.83736 -0.40396,1.91009 -0.14308,2.83233 l 2.57239,9.05842 c -0.25001,0.72739 -0.49767,1.46055 -0.73684,2.20529 l -6.11845,1.59752 c -0.62141,0.16207 -1.14552,0.82963 -1.38714,1.76346 -0.24039,0.93575 -0.16224,2.00269 0.20434,2.82267 l 3.61938,8.06866 c -0.15752,0.79683 -0.31014,1.59753 -0.45435,2.40401 l -5.80349,3.48253 c -0.58905,0.35308 -1.02292,1.17113 -1.14553,2.16475 -0.1226,0.99172 0.0831,2.01235 0.54327,2.70307 l 4.54018,6.79526 c -0.0566,0.82 -0.10703,1.64577 -0.15026,2.46961 l -5.28184,5.24791 c -0.53486,0.53058 -0.86067,1.46826 -0.86067,2.48119 0,1.01291 0.32581,1.95061 0.86067,2.47926 l 5.28184,5.24789 c 0.0434,0.82577 0.0934,1.64961 0.15026,2.4696 l -4.54018,6.7972 c -0.4604,0.68881 -0.66587,1.71138 -0.54327,2.70113 0.12261,0.99362 0.55648,1.80977 1.14553,2.16476 l 5.80349,3.48254 c 0.14421,0.80649 0.29683,1.60718 0.45435,2.40401 l -3.61938,8.07058 c -0.36781,0.82192 -0.44596,1.88886 -0.20434,2.82075 0.24162,0.93575 0.76686,1.60332 1.38837,1.76346 l 6.11722,1.59753 c 0.23917,0.74473 0.48437,1.47787 0.73684,2.20911 l -2.57239,9.05458 c -0.26201,0.92031 -0.20793,1.9911 0.14308,2.83234 0.35092,0.84311 0.94836,1.33511 1.57468,1.29459 l 6.20726,-0.34922 c 0.32336,0.64828 0.64916,1.28304 0.98092,1.91396 l -1.42442,9.71056 c -0.14422,0.98397 0.0377,2.01234 0.48437,2.72814 0.4436,0.71966 1.08908,1.00713 1.70332,0.77561 l 6.04747,-2.28633 c 0.39311,0.53638 0.79093,1.0573 1.19243,1.57053 l -0.21632,9.9691 c -0.0236,1.00905 0.28248,1.96602 0.8065,2.52942 0.52174,0.56143 1.19007,0.64632 1.76344,0.22572 l 5.64238,-4.12693 c 0.45436,0.40517 0.91117,0.79876 1.37393,1.18269 l 0.99772,9.81667 c 0.10099,0.99944 0.51684,1.84449 1.09861,2.22845 0.58064,0.38782 1.24774,0.2624 1.75863,-0.32607 l 5.02691,-5.81322 c 0.49645,0.25275 0.99536,0.49971 1.49776,0.73124 l 2.16967,9.31119 c 0.22,0.94539 0.72967,1.64575 1.34872,1.83867 0.61783,0.20067 1.25378,-0.13119 1.68285,-0.87207 l 4.23485,-7.28727 c 0.5108,0.0945 1.02528,0.17368 1.53976,0.24697 l 3.2696,8.4777 c 0.3293,0.8547 0.91475,1.38142 1.54457,1.38142 0.62991,0 1.21527,-0.52477 1.54589,-1.38142 l 3.26951,-8.4777 c 0.51448,-0.0733 1.02773,-0.15242 1.53862,-0.24697 l 4.23363,7.28727 c 0.42906,0.7409 1.06615,1.07274 1.68284,0.87207 0.61906,-0.19486 1.12872,-0.89328 1.34863,-1.83867 l 2.16977,-9.31119 c 0.50239,-0.23153 1.0013,-0.47849 1.49775,-0.73124 l 5.02814,5.81322 c 0.5108,0.58847 1.17676,0.71389 1.75731,0.32607 0.58187,-0.38396 0.99772,-1.23095 1.09871,-2.22845 l 0.99772,-9.81667 c 0.46153,-0.38393 0.91834,-0.78332 1.37392,-1.18269 l 5.64238,4.12693 c 0.57338,0.4206 1.24048,0.33571 1.76336,-0.22572 0.5241,-0.5634 0.82943,-1.51843 0.8066,-2.52942 l -0.21633,-9.9691 c 0.4014,-0.51513 0.79933,-1.03415 1.19121,-1.57053 l 6.04747,2.28633 c 0.61423,0.23152 1.25848,-0.0559 1.70208,-0.77561 0.44719,-0.7158 0.62869,-1.74417 0.48447,-2.72814 l -1.42442,-9.71056 c 0.33175,-0.63092 0.6587,-1.26568 0.97846,-1.91396 l 6.20971,0.34922 c 0.62624,0.0404 1.2249,-0.45148 1.57468,-1.29459 0.35101,-0.84124 0.40509,-1.91203 0.14186,-2.83234 l -2.57116,-9.05458 c 0.25124,-0.73124 0.49758,-1.46438 0.73562,-2.20911 l 6.11843,-1.59753 c 0.62265,-0.16014 1.14675,-0.82771 1.38715,-1.76346 0.24039,-0.93189 0.16469,-1.99883 -0.20433,-2.82075 l -3.6194,-8.07058 c 0.1563,-0.79683 0.30892,-1.59752 0.45437,-2.40401 l 5.80227,-3.48254 c 0.59016,-0.35499 1.02536,-1.17114 1.14551,-2.16476 0.12505,-0.99171 -0.0821,-2.01232 -0.54326,-2.70113 l -4.53896,-6.7972 c 0.0557,-0.81999 0.1058,-1.64574 0.15025,-2.4696 l 5.28176,-5.24789 c 0.53495,-0.52865 0.86066,-1.46828 0.86066,-2.47926 0,-1.01101 -0.32448,-1.95061 -0.85944,-2.48119 z m -35.35082,70.32776 c -2.01705,-0.69845 -3.29961,-3.88963 -2.86687,-7.13678 0.43152,-3.24326 2.41846,-5.3077 4.43429,-4.60928 2.01705,0.69264 3.30207,3.88962 2.86932,7.13098 -0.43274,3.24137 -2.42091,5.30772 -4.43674,4.61508 z m -1.79468,-19.48286 c -1.84037,-0.63284 -3.65063,1.24639 -4.04486,4.20605 l -1.8752,14.04586 c -5.78659,4.21571 -12.21273,6.55795 -18.98024,6.55795 -6.92259,0 -13.48812,-2.45803 -19.37816,-6.85313 l -1.87397,-14.04589 c -0.39424,-2.95579 -2.20459,-4.83888 -4.04363,-4.20409 l -7.7256,2.66251 c -1.43405,-2.36926 -2.76824,-4.89288 -3.99436,-7.55735 h 37.59032 c 0.42548,0 0.70919,-0.12347 0.70919,-0.74474 v -21.34278 c 0,-0.62127 -0.28371,-0.74475 -0.70919,-0.74475 h -10.99397 v -13.5288 h 11.8907 c 1.0854,0 5.8034,0.49778 7.31201,10.17748 0.47238,2.97704 1.50974,12.66059 2.21893,15.76109 0.70683,3.47674 3.58446,10.4225 6.65096,10.4225 h 18.73136 c 0.21283,0 0.44002,-0.0386 0.67917,-0.10787 -1.29936,2.83425 -2.72501,5.51608 -4.26005,8.02235 z m -51.99075,19.18959 c -2.01705,0.69844 -4.00276,-1.366 -4.43674,-4.60929 -0.43151,-3.24907 0.85105,-6.43833 2.8681,-7.13676 2.01696,-0.69263 4.004,1.37178 4.43674,4.61507 0.43152,3.24135 -0.85227,6.43642 -2.8681,7.13098 z m -14.25979,-92.81272 c 0.8366,3.03105 -0.0142,6.58303 -1.90049,7.92395 -1.88595,1.34477 -4.0929,-0.0232 -4.92951,-3.05614 -0.8367,-3.03298 0.0142,-6.57917 1.90039,-7.92395 1.88718,-1.34286 4.09291,0.0232 4.92961,3.05614 z m -4.38266,16.6756 8.04763,-5.73989 c 1.71889,-1.22516 2.49547,-4.4588 1.7322,-7.22359 l -1.65764,-6.0158 h 6.51863 v 47.16173 h -13.15156 c -1.1407,-6.43641 -1.75249,-13.22974 -1.75249,-20.25076 0,-2.67992 0.0897,-5.32895 0.26323,-7.93169 z m 35.31599,-4.58034 v -13.90117 h 15.5232 c 0.80178,0 5.66163,1.48756 5.66163,7.32006 0,4.84274 -3.72755,6.57919 -6.79281,6.57919 h -14.39202 z m 56.41427,12.51203 c 0,1.84449 -0.0425,3.66967 -0.12618,5.48134 h -4.71923 c -0.47249,0 -0.66238,0.49779 -0.66238,1.2406 v 3.47868 c 0,8.18829 -2.8765,9.96911 -5.39718,10.42251 -2.40043,0.43411 -5.06174,-1.61298 -5.3899,-3.97067 -1.41603,-12.78405 -3.77569,-15.51413 -7.50201,-20.23147 4.62428,-4.71347 9.43609,-11.66695 9.43609,-20.97426 0,-10.05014 -4.29252,-16.38043 -7.21828,-19.4848 -4.10499,-4.34303 -8.64988,-5.21317 -9.87601,-5.21317 h -48.80656 c 6.61848,-11.85603 15.58813,-20.25462 25.73341,-23.31074 l 5.75291,9.68739 c 1.30059,2.186 3.45468,2.26703 4.8154,0.17751 l 6.43698,-9.88228 c 13.48813,4.03048 24.90748,17.50718 31.48868,35.99642 l -4.40671,15.97524 c -0.76093,2.76481 0.016,5.99843 1.73332,7.22359 l 8.48406,6.0486 c 0.14667,2.41751 0.22359,4.86011 0.22359,7.33551 z m -48.77287,-80.80237 c 1.49049,-2.29208 3.85496,-2.20142 5.28174,0.19488 1.42443,2.40207 1.37035,6.20102 -0.12383,8.49118 -1.49049,2.29211 -3.85496,2.20336 -5.28174,-0.19678 -1.42319,-2.39823 -1.36911,-6.19717 0.12383,-8.48928 z m 43.73029,56.48641 c 0.83539,-3.03105 3.04233,-4.39898 4.92837,-3.05421 1.88605,1.34285 2.73701,4.89291 1.90041,7.92396 -0.83539,3.03298 -3.04234,4.4009 -4.92952,3.05614 -1.88358,-1.34286 -2.73464,-4.89098 -1.89926,-7.92589 z"
       id="path3-3"
       inkscape:connector-curvature="0"
       style="stroke-width:1.52289033" />
    <flowRoot
       xml:space="preserve"
       id="flowRoot838"
       style="font-style:normal;font-variant:normal;font-weight:normal;font-stretch:normal;font-size:168px;line-height:1.09000003;font-family:'Gentium Plus';-inkscape-font-specification:'Gentium Plus';letter-spacing:0px;word-spacing:0px;fill:#fffffd;fill-opacity:1;stroke:none"
       transform="matrix(0.93750003,0,0,0.93750003,209.86796,121.88341)"><flowRegion
         id="flowRegion840"
         style="fill:#fffffd;fill-opacity:1"><rect
           id="rect842"
           width="1621.7889"
           height="666.83875"
           x="562.28217"
           y="69.983185"
           style="fill:#fffffd;fill-opacity:1" /></flowRegion><flowPara
         id="flowPara844"
         style="font-style:normal;font-variant:normal;font-weight:normal;font-stretch:normal;font-family:'Yanone Kaffeesatz';-inkscape-font-specification:'Yanone Kaffeesatz';fill:#fffffd;fill-opacity:1">Control structures</flowPara><flowPara
         style="font-style:normal;font-variant:normal;font-weight:normal;font-stretch:normal;font-family:'Yanone Kaffeesatz';-inkscape-font-specification:'Yanone Kaffeesatz';fill:#fffffd;fill-opacity:1"
         id="flowPara869"> and functions</flowPara></flowRoot>    <path
       style="fill:none;stroke:#885c31;stroke-width:18.75;stroke-linecap:butt;stroke-linejoin:miter;stroke-miterlimit:4;stroke-dasharray:none;stroke-opacity:1"
       d="m 724.76528,635.77589 57.29181,329.25979"
       id="path867"
       inkscape:connector-curvature="0"
       sodipodi:nodetypes="cc" />
    <path
       style="fill:none;stroke:#885c31;stroke-width:18.75;stroke-linecap:butt;stroke-linejoin:miter;stroke-miterlimit:4;stroke-dasharray:none;stroke-opacity:1"
       d="m 762.26147,635.75402 57.28175,329.20217"
       id="path867-3"
       inkscape:connector-curvature="0"
       sodipodi:nodetypes="cc" />
    <flowRoot
       xml:space="preserve"
       id="flowRoot886"
       style="font-style:normal;font-variant:normal;font-weight:normal;font-stretch:normal;font-size:133.33332825px;line-height:1.25;font-family:'Gentium Plus';-inkscape-font-specification:'Gentium Plus';letter-spacing:0px;word-spacing:0px;fill:#000000;fill-opacity:1;stroke:none"
       transform="matrix(0.93750003,0,0,0.93750003,-108.73101,176.84896)"><flowRegion
         id="flowRegion888"><rect
           id="rect890"
           width="2149.219"
           height="504.19516"
           x="1015.3608"
           y="499.827" /></flowRegion><flowPara
         id="flowPara892"
         style="font-style:normal;font-variant:normal;font-weight:normal;font-stretch:normal;font-family:'Yanone Kaffeesatz';-inkscape-font-specification:'Yanone Kaffeesatz'">28th of August 2019</flowPara><flowPara
         style="font-style:normal;font-variant:normal;font-weight:normal;font-stretch:normal;font-family:'Yanone Kaffeesatz';-inkscape-font-specification:'Yanone Kaffeesatz'"
         id="flowPara886">  Rust Graz, lab10</flowPara></flowRoot>    <path
       style="fill:none;stroke:#000000;stroke-width:0.93750006px;stroke-linecap:butt;stroke-linejoin:miter;stroke-opacity:1"
       d="M 2261.4816,1059.3804 2075.3615,-4.0952274"
       id="path852"
       inkscape:connector-curvature="0" />
    <path
       style="fill:none;stroke:#000000;stroke-width:0.93750006px;stroke-linecap:butt;stroke-linejoin:miter;stroke-opacity:1"
       d="M 2297.1066,1059.3803 2110.9865,-4.0952106"
       id="path852-3"
       inkscape:connector-curvature="0" />
    <path
       style="fill:none;stroke:#000000;stroke-width:0.93750006px;stroke-linecap:butt;stroke-linejoin:miter;stroke-opacity:1"
       d="M 3388.3566,1059.3802 3202.2365,-4.0952106"
       id="path852-3-6"
       inkscape:connector-curvature="0" />
  </g>
</svg>
